<svg xmlns="http://www.w3.org/2000/svg" width="17.03" height="17" viewBox="0 0 17.03 17">
  <defs>
    <style>
      .cls-1 {
        fill: #fff;
        fill-opacity: 0;
        stroke: #333;
        stroke-linejoin: round;
        stroke-width: 1px;
        fill-rule: evenodd;
      }
    </style>
  </defs>
  <path id="Phone_receiver" data-name="Phone receiver" class="cls-1" d="M1034.02,1039.62a0.794,0.794,0,0,1-.24.68l-2.25,2.24a1.5,1.5,0,0,1-.4.28,2,2,0,0,1-.49.16h-0.1a1.347,1.347,0,0,1-.22.01,6.856,6.856,0,0,1-1.04-.11,7.536,7.536,0,0,1-1.76-.54,14.457,14.457,0,0,1-2.37-1.3,16.925,16.925,0,0,1-2.81-2.37,17.322,17.322,0,0,1-1.97-2.23,16.642,16.642,0,0,1-1.26-1.97,11.861,11.861,0,0,1-.71-1.65,8.716,8.716,0,0,1-.32-1.27,4.017,4.017,0,0,1-.07-0.84c0.01-.2.02-0.31,0.02-0.33a1.615,1.615,0,0,1,.15-0.49,1.323,1.323,0,0,1,.29-0.39l2.26-2.26a0.7,0.7,0,0,1,.54-0.23,0.689,0.689,0,0,1,.39.12,1.275,1.275,0,0,1,.29.32l1.81,3.43a0.822,0.822,0,0,1,.08.6,1.081,1.081,0,0,1-.28.54l-0.83.83a0.168,0.168,0,0,0-.06.11,0.345,0.345,0,0,0-.03.13,3.363,3.363,0,0,0,.31.81,7.085,7.085,0,0,0,.62.99,11.911,11.911,0,0,0,1.21,1.35,12.975,12.975,0,0,0,1.35,1.21,7.975,7.975,0,0,0,1,.63,2.359,2.359,0,0,0,.61.25l0.21,0.04a0.363,0.363,0,0,0,.11-0.03,0.168,0.168,0,0,0,.11-0.06l0.96-.98a1.075,1.075,0,0,1,.72-0.27,0.834,0.834,0,0,1,.45.1h0.02l3.27,1.93A0.893,0.893,0,0,1,1034.02,1039.62Z" transform="translate(-1017.5 -1026.5)"/>
</svg>
